<svg width="123" height="44" viewBox="0 0 123 44" fill="none" xmlns="http://www.w3.org/2000/svg">
<rect x="0.5" y="0.5" width="43" height="43" rx="5.5" stroke="#E6E7E8"/>
<path d="M26.4769 13.3485L20.204 9.55503C19.6119 9.19286 18.9388 9.00144 18.2532 9.00024C16.2094 9.00024 14.3348 10.7122 14.3348 13.105V27.3073L26.4769 19.9669C28.9083 18.4946 28.9083 14.8199 26.4769 13.3485ZM17.8484 20.4479V12.8679L24.1163 16.6566L17.8484 20.4479Z" fill="#0E1422"/>
<path d="M29.8489 34.9844C29.8489 35.0273 17.9908 34.966 17.9908 34.966L16.9434 34.8425C15.2467 34.644 13.9443 33.1232 14.002 31.3346C14.002 31.2917 14.0057 31.2518 14.0081 31.2102C14.0547 30.4364 14.3261 29.6961 14.7858 29.0884C14.9725 28.8461 15.2009 28.6425 15.4592 28.4882L24.4782 23.0724C26.3414 21.9534 27.8931 21.562 28.6999 19.534C28.9974 18.7756 29.126 17.9561 29.0757 17.1378L29.0446 16.5865L29.9651 21.9204C30.083 22.8263 29.9013 23.7537 29.4211 24.5168C29.1326 24.9784 28.7475 25.3652 28.2951 25.6478L17.8295 30.8943C17.8191 30.9005 17.809 30.9074 17.7993 30.9148C17.5127 31.1292 17.6896 31.6068 18.0403 31.5867L26.7515 31.6402C28.4433 31.5416 29.8526 33.2111 29.8489 34.9844Z" fill="#0E1422"/>
<path d="M61.4 30V15.6H66.06C66.1733 15.6 66.4067 15.6033 66.76 15.61C67.1133 15.6167 67.4533 15.64 67.78 15.68C68.94 15.82 69.9233 16.2233 70.73 16.89C71.5367 17.5567 72.15 18.4033 72.57 19.43C72.99 20.4567 73.2 21.58 73.2 22.8C73.2 24.02 72.99 25.1433 72.57 26.17C72.15 27.1967 71.5367 28.0433 70.73 28.71C69.9233 29.3767 68.94 29.78 67.78 29.92C67.4533 29.96 67.1133 29.9833 66.76 29.99C66.4067 29.9967 66.1733 30 66.06 30H61.4ZM64.16 27.44H66.06C66.24 27.44 66.4833 27.4367 66.79 27.43C67.0967 27.4167 67.3733 27.3867 67.62 27.34C68.2467 27.2133 68.7567 26.92 69.15 26.46C69.55 26 69.8433 25.4467 70.03 24.8C70.2233 24.1533 70.32 23.4867 70.32 22.8C70.32 22.08 70.22 21.3967 70.02 20.75C69.8267 20.1033 69.53 19.5567 69.13 19.11C68.73 18.6633 68.2267 18.38 67.62 18.26C67.3733 18.2067 67.0967 18.1767 66.79 18.17C66.4833 18.1633 66.24 18.16 66.06 18.16H64.16V27.44ZM74.5992 30V19.2H76.9992V21.84L76.7392 21.5C76.8792 21.1267 77.0659 20.7867 77.2992 20.48C77.5326 20.1733 77.8192 19.92 78.1592 19.72C78.4192 19.56 78.7026 19.4367 79.0092 19.35C79.3159 19.2567 79.6326 19.2 79.9592 19.18C80.2859 19.1533 80.6126 19.16 80.9392 19.2V21.74C80.6392 21.6467 80.2892 21.6167 79.8892 21.65C79.4959 21.6767 79.1392 21.7667 78.8192 21.92C78.4992 22.0667 78.2292 22.2633 78.0092 22.51C77.7892 22.75 77.6226 23.0367 77.5092 23.37C77.3959 23.6967 77.3392 24.0667 77.3392 24.48V30H74.5992ZM86.6661 30.3C85.5594 30.3 84.5828 30.0633 83.7361 29.59C82.8961 29.11 82.2361 28.4533 81.7561 27.62C81.2828 26.78 81.0461 25.82 81.0461 24.74C81.0461 23.56 81.2794 22.5333 81.7461 21.66C82.2128 20.7867 82.8561 20.11 83.6761 19.63C84.4961 19.1433 85.4394 18.9 86.5061 18.9C87.6394 18.9 88.6028 19.1667 89.3961 19.7C90.1894 20.2333 90.7761 20.9833 91.1561 21.95C91.5361 22.9167 91.6694 24.0533 91.5561 25.36H88.8661V24.36C88.8661 23.26 88.6894 22.47 88.3361 21.99C87.9894 21.5033 87.4194 21.26 86.6261 21.26C85.6994 21.26 85.0161 21.5433 84.5761 22.11C84.1428 22.67 83.9261 23.5 83.9261 24.6C83.9261 25.6067 84.1428 26.3867 84.5761 26.94C85.0161 27.4867 85.6594 27.76 86.5061 27.76C87.0394 27.76 87.4961 27.6433 87.8761 27.41C88.2561 27.1767 88.5461 26.84 88.7461 26.4L91.4661 27.18C91.0594 28.1667 90.4161 28.9333 89.5361 29.48C88.6628 30.0267 87.7061 30.3 86.6661 30.3ZM83.0861 25.36V23.34H90.2461V25.36H83.0861ZM97.0341 30.3C95.6741 30.3 94.5741 29.9933 93.7341 29.38C92.9007 28.76 92.3941 27.8867 92.2141 26.76L94.9941 26.34C95.1074 26.8467 95.3574 27.2433 95.7441 27.53C96.1374 27.8167 96.6341 27.96 97.2341 27.96C97.7274 27.96 98.1074 27.8667 98.3741 27.68C98.6407 27.4867 98.7741 27.22 98.7741 26.88C98.7741 26.6667 98.7207 26.4967 98.6141 26.37C98.5074 26.2367 98.2674 26.1067 97.8941 25.98C97.5274 25.8533 96.9541 25.6867 96.1741 25.48C95.2941 25.2533 94.5907 25 94.0641 24.72C93.5374 24.44 93.1574 24.1067 92.9241 23.72C92.6907 23.3267 92.5741 22.8533 92.5741 22.3C92.5741 21.6067 92.7507 21.0067 93.1041 20.5C93.4574 19.9867 93.9541 19.5933 94.5941 19.32C95.2407 19.04 96.0007 18.9 96.8741 18.9C97.7207 18.9 98.4707 19.03 99.1241 19.29C99.7774 19.55 100.304 19.92 100.704 20.4C101.111 20.88 101.361 21.4467 101.454 22.1L98.6741 22.6C98.6274 22.2 98.4541 21.8833 98.1541 21.65C97.8541 21.4167 97.4474 21.28 96.9341 21.24C96.4341 21.2067 96.0307 21.2733 95.7241 21.44C95.4241 21.6067 95.2741 21.8467 95.2741 22.16C95.2741 22.3467 95.3374 22.5033 95.4641 22.63C95.5974 22.7567 95.8674 22.8867 96.2741 23.02C96.6874 23.1533 97.3141 23.3267 98.1541 23.54C98.9741 23.7533 99.6307 24.0033 100.124 24.29C100.624 24.57 100.987 24.91 101.214 25.31C101.441 25.7033 101.554 26.18 101.554 26.74C101.554 27.8467 101.154 28.7167 100.354 29.35C99.5541 29.9833 98.4474 30.3 97.0341 30.3ZM106.972 30.3C105.612 30.3 104.512 29.9933 103.672 29.38C102.838 28.76 102.332 27.8867 102.152 26.76L104.932 26.34C105.045 26.8467 105.295 27.2433 105.682 27.53C106.075 27.8167 106.572 27.96 107.172 27.96C107.665 27.96 108.045 27.8667 108.312 27.68C108.578 27.4867 108.712 27.22 108.712 26.88C108.712 26.6667 108.658 26.4967 108.552 26.37C108.445 26.2367 108.205 26.1067 107.832 25.98C107.465 25.8533 106.892 25.6867 106.112 25.48C105.232 25.2533 104.528 25 104.002 24.72C103.475 24.44 103.095 24.1067 102.862 23.72C102.628 23.3267 102.512 22.8533 102.512 22.3C102.512 21.6067 102.688 21.0067 103.042 20.5C103.395 19.9867 103.892 19.5933 104.532 19.32C105.178 19.04 105.938 18.9 106.812 18.9C107.658 18.9 108.408 19.03 109.062 19.29C109.715 19.55 110.242 19.92 110.642 20.4C111.048 20.88 111.298 21.4467 111.392 22.1L108.612 22.6C108.565 22.2 108.392 21.8833 108.092 21.65C107.792 21.4167 107.385 21.28 106.872 21.24C106.372 21.2067 105.968 21.2733 105.662 21.44C105.362 21.6067 105.212 21.8467 105.212 22.16C105.212 22.3467 105.275 22.5033 105.402 22.63C105.535 22.7567 105.805 22.8867 106.212 23.02C106.625 23.1533 107.252 23.3267 108.092 23.54C108.912 23.7533 109.568 24.0033 110.062 24.29C110.562 24.57 110.925 24.91 111.152 25.31C111.378 25.7033 111.492 26.18 111.492 26.74C111.492 27.8467 111.092 28.7167 110.292 29.35C109.492 29.9833 108.385 30.3 106.972 30.3ZM112.889 30V15.6H115.609V27.46H121.809V30H112.889Z" fill="#0E1422"/>
</svg>
