<svg width="116" height="41" viewBox="0 0 116 41" fill="none" xmlns="http://www.w3.org/2000/svg">
<rect y="0.5" width="40" height="40" rx="20" fill="#0E1422"/>
<path d="M24.4769 11.8485L18.204 8.05509C17.6119 7.69292 16.9388 7.5015 16.2532 7.50031C14.2094 7.50031 12.3348 9.21225 12.3348 11.605V25.8073L24.4769 18.4669C26.9083 16.9947 26.9083 13.32 24.4769 11.8485ZM15.8484 18.948V11.3679L22.1163 15.1567L15.8484 18.948Z" fill="white"/>
<path d="M27.8489 33.4844C27.8489 33.5273 15.9908 33.466 15.9908 33.466L14.9434 33.3425C13.2467 33.144 11.9443 31.6233 12.002 29.8346C12.002 29.7917 12.0057 29.7519 12.0081 29.7103C12.0547 28.9365 12.3261 28.1961 12.7858 27.5885C12.9725 27.3461 13.2009 27.1425 13.4592 26.9882L22.4782 21.5725C24.3414 20.4535 25.8931 20.062 26.6999 18.0341C26.9974 17.2757 27.126 16.4562 27.0757 15.6379L27.0446 15.0865L27.9651 20.4204C28.083 21.3264 27.9013 22.2537 27.4211 23.0169C27.1326 23.4785 26.7475 23.8653 26.2951 24.1479L15.8295 29.3943C15.8191 29.4006 15.809 29.4074 15.7993 29.4149C15.5127 29.6293 15.6896 30.1069 16.0403 30.0867L24.7515 30.1403C26.4433 30.0417 27.8526 31.7112 27.8489 33.4844Z" fill="white"/>
<path d="M53.4 28V13.6H58.06C58.1733 13.6 58.4067 13.6033 58.76 13.61C59.1133 13.6167 59.4533 13.64 59.78 13.68C60.94 13.82 61.9233 14.2233 62.73 14.89C63.5367 15.5567 64.15 16.4033 64.57 17.43C64.99 18.4567 65.2 19.58 65.2 20.8C65.2 22.02 64.99 23.1433 64.57 24.17C64.15 25.1967 63.5367 26.0433 62.73 26.71C61.9233 27.3767 60.94 27.78 59.78 27.92C59.4533 27.96 59.1133 27.9833 58.76 27.99C58.4067 27.9967 58.1733 28 58.06 28H53.4ZM56.16 25.44H58.06C58.24 25.44 58.4833 25.4367 58.79 25.43C59.0967 25.4167 59.3733 25.3867 59.62 25.34C60.2467 25.2133 60.7567 24.92 61.15 24.46C61.55 24 61.8433 23.4467 62.03 22.8C62.2233 22.1533 62.32 21.4867 62.32 20.8C62.32 20.08 62.22 19.3967 62.02 18.75C61.8267 18.1033 61.53 17.5567 61.13 17.11C60.73 16.6633 60.2267 16.38 59.62 16.26C59.3733 16.2067 59.0967 16.1767 58.79 16.17C58.4833 16.1633 58.24 16.16 58.06 16.16H56.16V25.44ZM66.8992 28V17.2H69.2992V19.84L69.0392 19.5C69.1792 19.1267 69.3659 18.7867 69.5992 18.48C69.8326 18.1733 70.1192 17.92 70.4592 17.72C70.7192 17.56 71.0026 17.4367 71.3092 17.35C71.6159 17.2567 71.9326 17.2 72.2592 17.18C72.5859 17.1533 72.9126 17.16 73.2392 17.2V19.74C72.9392 19.6467 72.5892 19.6167 72.1892 19.65C71.7959 19.6767 71.4392 19.7667 71.1192 19.92C70.7992 20.0667 70.5292 20.2633 70.3092 20.51C70.0892 20.75 69.9226 21.0367 69.8092 21.37C69.6959 21.6967 69.6392 22.0667 69.6392 22.48V28H66.8992ZM79.2661 28.3C78.1594 28.3 77.1828 28.0633 76.3361 27.59C75.4961 27.11 74.8361 26.4533 74.3561 25.62C73.8828 24.78 73.6461 23.82 73.6461 22.74C73.6461 21.56 73.8794 20.5333 74.3461 19.66C74.8128 18.7867 75.4561 18.11 76.2761 17.63C77.0961 17.1433 78.0394 16.9 79.1061 16.9C80.2394 16.9 81.2028 17.1667 81.9961 17.7C82.7894 18.2333 83.3761 18.9833 83.7561 19.95C84.1361 20.9167 84.2694 22.0533 84.1561 23.36H81.4661V22.36C81.4661 21.26 81.2894 20.47 80.9361 19.99C80.5894 19.5033 80.0194 19.26 79.2261 19.26C78.2994 19.26 77.6161 19.5433 77.1761 20.11C76.7428 20.67 76.5261 21.5 76.5261 22.6C76.5261 23.6067 76.7428 24.3867 77.1761 24.94C77.6161 25.4867 78.2594 25.76 79.1061 25.76C79.6394 25.76 80.0961 25.6433 80.4761 25.41C80.8561 25.1767 81.1461 24.84 81.3461 24.4L84.0661 25.18C83.6594 26.1667 83.0161 26.9333 82.1361 27.48C81.2628 28.0267 80.3061 28.3 79.2661 28.3ZM75.6861 23.36V21.34H82.8461V23.36H75.6861ZM89.9341 28.3C88.5741 28.3 87.4741 27.9933 86.6341 27.38C85.8007 26.76 85.2941 25.8867 85.1141 24.76L87.8941 24.34C88.0074 24.8467 88.2574 25.2433 88.6441 25.53C89.0374 25.8167 89.5341 25.96 90.1341 25.96C90.6274 25.96 91.0074 25.8667 91.2741 25.68C91.5407 25.4867 91.6741 25.22 91.6741 24.88C91.6741 24.6667 91.6207 24.4967 91.5141 24.37C91.4074 24.2367 91.1674 24.1067 90.7941 23.98C90.4274 23.8533 89.8541 23.6867 89.0741 23.48C88.1941 23.2533 87.4907 23 86.9641 22.72C86.4374 22.44 86.0574 22.1067 85.8241 21.72C85.5907 21.3267 85.4741 20.8533 85.4741 20.3C85.4741 19.6067 85.6507 19.0067 86.0041 18.5C86.3574 17.9867 86.8541 17.5933 87.4941 17.32C88.1407 17.04 88.9007 16.9 89.7741 16.9C90.6207 16.9 91.3707 17.03 92.0241 17.29C92.6774 17.55 93.2041 17.92 93.6041 18.4C94.0107 18.88 94.2607 19.4467 94.3541 20.1L91.5741 20.6C91.5274 20.2 91.3541 19.8833 91.0541 19.65C90.7541 19.4167 90.3474 19.28 89.8341 19.24C89.3341 19.2067 88.9307 19.2733 88.6241 19.44C88.3241 19.6067 88.1741 19.8467 88.1741 20.16C88.1741 20.3467 88.2374 20.5033 88.3641 20.63C88.4974 20.7567 88.7674 20.8867 89.1741 21.02C89.5874 21.1533 90.2141 21.3267 91.0541 21.54C91.8741 21.7533 92.5307 22.0033 93.0241 22.29C93.5241 22.57 93.8874 22.91 94.1141 23.31C94.3407 23.7033 94.4541 24.18 94.4541 24.74C94.4541 25.8467 94.0541 26.7167 93.2541 27.35C92.4541 27.9833 91.3474 28.3 89.9341 28.3ZM100.172 28.3C98.8116 28.3 97.7116 27.9933 96.8716 27.38C96.0382 26.76 95.5316 25.8867 95.3516 24.76L98.1316 24.34C98.2449 24.8467 98.4949 25.2433 98.8816 25.53C99.2749 25.8167 99.7716 25.96 100.372 25.96C100.865 25.96 101.245 25.8667 101.512 25.68C101.778 25.4867 101.912 25.22 101.912 24.88C101.912 24.6667 101.858 24.4967 101.752 24.37C101.645 24.2367 101.405 24.1067 101.032 23.98C100.665 23.8533 100.092 23.6867 99.3116 23.48C98.4316 23.2533 97.7282 23 97.2016 22.72C96.6749 22.44 96.2949 22.1067 96.0616 21.72C95.8282 21.3267 95.7116 20.8533 95.7116 20.3C95.7116 19.6067 95.8882 19.0067 96.2416 18.5C96.5949 17.9867 97.0916 17.5933 97.7316 17.32C98.3782 17.04 99.1382 16.9 100.012 16.9C100.858 16.9 101.608 17.03 102.262 17.29C102.915 17.55 103.442 17.92 103.842 18.4C104.248 18.88 104.498 19.4467 104.592 20.1L101.812 20.6C101.765 20.2 101.592 19.8833 101.292 19.65C100.992 19.4167 100.585 19.28 100.072 19.24C99.5716 19.2067 99.1682 19.2733 98.8616 19.44C98.5616 19.6067 98.4116 19.8467 98.4116 20.16C98.4116 20.3467 98.4749 20.5033 98.6016 20.63C98.7349 20.7567 99.0049 20.8867 99.4116 21.02C99.8249 21.1533 100.452 21.3267 101.292 21.54C102.112 21.7533 102.768 22.0033 103.262 22.29C103.762 22.57 104.125 22.91 104.352 23.31C104.578 23.7033 104.692 24.18 104.692 24.74C104.692 25.8467 104.292 26.7167 103.492 27.35C102.692 27.9833 101.585 28.3 100.172 28.3ZM106.389 28V13.6H109.109V25.46H115.309V28H106.389Z" fill="#0E1422"/>
</svg>
